<svg xmlns="http://www.w3.org/2000/svg" width="19.498" height="22.208" viewBox="0 0 19.498 22.208"><g transform="translate(-126 -34)"><g transform="translate(126 34)"><g transform="translate(0 0)" fill="none" stroke="#fff" stroke-width="1"><rect width="14" height="19" rx="3" stroke="none"/><rect x="0.5" y="0.5" width="13" height="18" rx="2.5" fill="none"/></g><g transform="translate(1.641 4.554)"><g transform="translate(0 0)"><g transform="translate(0 0)"><path d="M5.345,0A5.292,5.292,0,0,0,0,5.226V5.4H3.259V5.051H.359A4.945,4.945,0,0,1,5.345.348a4.945,4.945,0,0,1,4.985,4.7H7.412V5.4H10.69V5.226A5.292,5.292,0,0,0,5.345,0Z" transform="translate(0 0)" fill="#fff"/></g></g><g transform="translate(0 5.29)"><path d="M10.512,98.987h-3.1a.174.174,0,1,0,0,.348H10.33a4.944,4.944,0,0,1-4.985,4.7,4.945,4.945,0,0,1-4.985-4.7H3.331a.174.174,0,1,0,0-.348H.178A.176.176,0,0,0,0,99.161a5.292,5.292,0,0,0,5.345,5.226,5.292,5.292,0,0,0,5.345-5.226A.176.176,0,0,0,10.512,98.987Z" transform="translate(0 -98.987)" fill="#fff"/></g><g transform="translate(3.255 3.255)"><path d="M63.53,61.44a2.09,2.09,0,1,0,2.09,2.09A2.093,2.093,0,0,0,63.53,61.44Zm0,3.832a1.742,1.742,0,1,1,1.742-1.742A1.744,1.744,0,0,1,63.53,65.272Z" transform="translate(-61.44 -61.44)" fill="#fff"/></g><g transform="translate(3.951 3.951)"><path d="M76.487,75.093a1.394,1.394,0,1,0,1.394,1.394A1.4,1.4,0,0,0,76.487,75.093Zm0,2.439a1.045,1.045,0,1,1,1.045-1.045A1.046,1.046,0,0,1,76.487,77.532Z" transform="translate(-75.093 -75.093)" fill="#fff"/></g></g></g><g transform="matrix(0.985, -0.174, 0.174, 0.985, 129.597, 38.107)"><g transform="translate(0 0)" fill="#2a364a" stroke="#fff" stroke-width="1"><rect width="12.905" height="18.38" rx="3" stroke="none"/><rect x="0.5" y="0.5" width="11.905" height="17.38" rx="2.5" fill="none"/></g><g transform="translate(1.498 4.09)"><g transform="translate(0 0)"><g transform="translate(0 0)"><path d="M5.012,0A4.963,4.963,0,0,0,0,4.9v.163H3.056V4.737H.337A4.637,4.637,0,0,1,5.012.327a4.637,4.637,0,0,1,4.675,4.41H6.951v.327h3.074V4.9A4.963,4.963,0,0,0,5.012,0Z" transform="translate(0 0)" fill="#fff"/></g></g><g transform="translate(0 4.961)"><g transform="translate(0 0)"><path d="M9.858,0H6.951a.165.165,0,0,0-.167.163.165.165,0,0,0,.167.163H9.688a4.637,4.637,0,0,1-4.675,4.41A4.637,4.637,0,0,1,.337.327H3.124A.165.165,0,0,0,3.291.163.165.165,0,0,0,3.124,0H.167A.165.165,0,0,0,0,.163a4.963,4.963,0,0,0,5.012,4.9,4.963,4.963,0,0,0,5.012-4.9A.165.165,0,0,0,9.858,0Z" transform="translate(0 0)" fill="#fff"/></g></g><g transform="translate(3.052 3.052)"><g transform="translate(0 0)"><path d="M1.96,0A1.96,1.96,0,1,0,3.92,1.96,1.962,1.962,0,0,0,1.96,0Zm0,3.594A1.633,1.633,0,1,1,3.594,1.96,1.635,1.635,0,0,1,1.96,3.594Z" transform="translate(0 0)" fill="#fff"/></g></g><g transform="translate(3.706 3.706)"><g transform="translate(0 0)"><path d="M1.307,0A1.307,1.307,0,1,0,2.614,1.307,1.308,1.308,0,0,0,1.307,0Zm0,2.287a.98.98,0,1,1,.98-.98A.981.981,0,0,1,1.307,2.287Z" transform="translate(0 0)" fill="#fff"/></g></g></g></g></g></svg>