<svg xmlns="http://www.w3.org/2000/svg" width="20.894" height="20.894" viewBox="0 0 20.894 20.894"><path d="M23.611,13.512a10.1,10.1,0,0,0-20.2,0Z" transform="translate(-3.065 -3.065)" fill="#ee5281"/><path d="M20.894,10.8H0v-.348a10.447,10.447,0,0,1,20.894,0ZM.7,10.1H20.191A9.751,9.751,0,0,0,.7,10.1Z" transform="translate(0 0)"/><path d="M23.611,102.4a10.1,10.1,0,1,1-20.2,0Z" transform="translate(-3.065 -91.953)" fill="#fff"/><path d="M10.447,109.782A10.459,10.459,0,0,1,0,99.335a.348.348,0,0,1,.348-.348h20.2a.348.348,0,0,1,.348.348A10.459,10.459,0,0,1,10.447,109.782ZM.7,99.683a9.751,9.751,0,0,0,19.489,0Z" transform="translate(0 -88.888)"/><circle cx="3.831" cy="3.831" r="3.831" transform="translate(6.616 6.616)" fill="#777"/><path d="M65.619,69.8A4.179,4.179,0,1,1,69.8,65.619,4.183,4.183,0,0,1,65.619,69.8Zm0-7.661A3.482,3.482,0,1,0,69.1,65.619,3.486,3.486,0,0,0,65.619,62.137Z" transform="translate(-55.172 -55.172)"/><circle cx="2.438" cy="2.438" r="2.438" transform="translate(8.009 8.009)" fill="#fff"/><path d="M77.879,80.665a2.786,2.786,0,1,1,2.786-2.786A2.789,2.789,0,0,1,77.879,80.665Zm0-4.875a2.089,2.089,0,1,0,2.089,2.089A2.092,2.092,0,0,0,77.879,75.79Z" transform="translate(-67.432 -67.432)"/></svg>