<svg xmlns="http://www.w3.org/2000/svg" width="18.079" height="18.08" viewBox="0 0 18.079 18.08"><path d="M13.248,13.842v1.412a2.828,2.828,0,0,1-2.825,2.825h-7.1A2.828,2.828,0,0,1,.5,15.255V2.825A2.828,2.828,0,0,1,3.325,0h7.1a2.828,2.828,0,0,1,2.825,2.825V4.237a.706.706,0,1,1-1.412,0V2.825a1.414,1.414,0,0,0-1.412-1.412h-7.1A1.414,1.414,0,0,0,1.912,2.825v12.43a1.414,1.414,0,0,0,1.412,1.412h7.1a1.414,1.414,0,0,0,1.412-1.412V13.842a.706.706,0,0,1,1.412,0Zm4.815-6.016L16.481,6.245a.706.706,0,0,0-1,1l1.125,1.125H8.127a.706.706,0,0,0,0,1.412h8.48l-1.125,1.125a.706.706,0,1,0,1,1l1.581-1.581a1.768,1.768,0,0,0,0-2.5Zm0,0" transform="translate(-0.5)" fill="#fff"/></svg>