<svg xmlns="http://www.w3.org/2000/svg" width="23.413" height="23.335" viewBox="0 0 23.413 23.335"><g transform="translate(-289.587 -103)"><circle cx="11.5" cy="11.5" r="11.5" transform="translate(290 103)" fill="#fff"/><g transform="translate(289.587 103)"><g transform="translate(0 0)"><g transform="translate(0 0)"><path d="M11.668,0A11.553,11.553,0,0,0,0,11.407v.38H7.114v-.761H.785A10.794,10.794,0,0,1,11.668.761,10.794,10.794,0,0,1,22.551,11.027H16.18v.761h7.155v-.38A11.553,11.553,0,0,0,11.668,0Z" transform="translate(0 0)"/></g></g><g transform="translate(0 11.548)"><path d="M22.946,98.987H16.18a.38.38,0,1,0,0,.76h6.371a10.794,10.794,0,0,1-10.883,10.267A10.794,10.794,0,0,1,.785,99.747H7.272a.38.38,0,1,0,0-.76H.389a.385.385,0,0,0-.389.38,11.553,11.553,0,0,0,11.668,11.407A11.553,11.553,0,0,0,23.335,99.367.385.385,0,0,0,22.946,98.987Z" transform="translate(0 -98.987)"/></g><g transform="translate(7.105 7.105)"><path d="M66,61.44A4.563,4.563,0,1,0,70.566,66,4.568,4.568,0,0,0,66,61.44Zm0,8.365a3.8,3.8,0,1,1,3.8-3.8A3.807,3.807,0,0,1,66,69.805Z" transform="translate(-61.44 -61.44)"/></g><g transform="translate(8.626 8.626)"><path d="M78.135,75.093a3.042,3.042,0,1,0,3.042,3.042A3.046,3.046,0,0,0,78.135,75.093Zm0,5.323a2.281,2.281,0,1,1,2.281-2.281A2.284,2.284,0,0,1,78.135,80.416Z" transform="translate(-75.093 -75.093)"/></g></g></g></svg>